<?xml version="1.0" standalone="no"?>
<!DOCTYPE svg PUBLIC "-//W3C//DTD SVG 20010904//EN"
 "http://www.w3.org/TR/2001/REC-SVG-20010904/DTD/svg10.dtd">
<svg version="1.0" xmlns="http://www.w3.org/2000/svg"
 width="446.000000pt" height="84.000000pt" viewBox="0 0 446.000000 84.000000"
 preserveAspectRatio="xMidYMid meet">

<g transform="translate(0.000000,84.000000) scale(0.100000,-0.100000)"
fill="#000000" stroke="none">
<path d="M16 638 c5 -7 39 -56 76 -109 l68 -97 0 -96 0 -96 45 0 45 0 0 96 0
96 76 109 c59 85 71 109 57 109 -38 0 -108 -46 -143 -93 -35 -48 -35 -48 -50
-25 -35 52 -67 82 -105 99 -47 22 -80 25 -69 7z"/>
<path d="M515 621 c-70 -32 -105 -93 -105 -183 1 -103 57 -177 150 -197 100
-22 203 25 237 108 17 41 19 135 3 176 -37 99 -177 146 -285 96z m168 -81 c76
-60 51 -193 -42 -221 -46 -14 -101 6 -126 45 -22 34 -23 117 -1 147 36 51 122
66 169 29z"/>
<path d="M951 618 c-65 -32 -101 -94 -101 -175 0 -128 73 -203 196 -203 73 0
136 29 165 76 27 44 19 64 -25 64 -25 0 -39 -7 -53 -26 -22 -30 -75 -44 -120
-32 -61 16 -96 93 -73 162 16 51 53 76 109 76 39 0 52 -5 76 -30 22 -23 38
-30 67 -30 31 0 38 4 38 20 0 27 -58 90 -97 106 -49 21 -131 17 -182 -8z"/>
<path d="M1369 620 c-76 -40 -117 -122 -105 -209 8 -56 31 -96 79 -135 36 -29
44 -31 121 -31 75 0 86 3 119 28 39 30 72 81 62 97 -12 20 -68 10 -95 -15 -52
-50 -124 -49 -171 1 -20 21 -24 36 -24 86 0 55 3 62 33 89 26 23 42 29 78 29
38 0 51 -5 75 -31 23 -25 35 -30 65 -27 47 4 51 15 21 59 -50 75 -174 103
-258 59z"/>
<path d="M1680 600 l0 -40 56 0 56 0 -26 -31 c-24 -28 -26 -38 -26 -120 l0
-89 -30 0 c-28 0 -30 -2 -30 -40 l0 -40 100 0 100 0 0 40 c0 38 -2 40 -30 40
l-30 0 0 120 0 120 31 0 c29 0 30 2 27 38 l-3 37 -97 3 -98 3 0 -41z"/>
<path d="M2217 622 c-22 -24 -21 -35 1 -55 37 -34 112 -15 112 28 0 44 -81 63
-113 27z"/>
<path d="M2357 622 c-22 -24 -21 -35 1 -55 37 -34 112 -15 112 28 0 44 -81 63
-113 27z"/>
<path d="M2500 600 l0 -40 90 0 90 0 -80 -160 c-44 -88 -80 -162 -80 -164 0
-7 65 11 89 25 15 9 52 74 107 187 46 95 84 177 84 182 0 6 -58 10 -150 10
l-150 0 0 -40z"/>
<path d="M3000 435 c0 -136 4 -205 10 -205 14 0 60 46 60 60 0 19 17 10 28
-15 24 -53 119 -52 161 2 38 47 19 153 -28 168 -20 6 -20 6 0 26 13 13 19 33
19 62 0 76 -52 107 -182 107 l-68 0 0 -205z m164 103 c17 -27 -5 -52 -48 -56
l-36 -3 0 41 0 41 36 -3 c22 -2 42 -10 48 -20z m0 -138 c20 -7 26 -17 26 -38
0 -39 -17 -52 -67 -52 l-43 0 0 43 c0 24 3 47 7 50 9 10 48 8 77 -3z"/>
<path d="M3330 441 l0 -201 110 0 110 0 0 40 0 40 -100 0 -99 0 24 24 c34 34
46 92 43 198 l-3 93 -42 3 -43 3 0 -200z"/>
<path d="M3685 626 c-88 -41 -132 -145 -105 -246 26 -95 91 -143 195 -143 77
0 135 28 172 85 24 35 28 52 28 112 0 134 -60 199 -189 204 -45 1 -82 -3 -101
-12z m171 -100 c29 -29 34 -41 34 -80 0 -86 -44 -132 -122 -130 -31 1 -47 9
-72 33 -28 28 -31 37 -31 92 0 56 3 63 33 90 26 23 42 29 78 29 39 0 51 -5 80
-34z"/>
<path d="M4119 620 c-102 -54 -137 -174 -81 -281 36 -68 89 -99 174 -99 32 0
73 6 91 14 38 15 84 66 93 102 3 13 12 24 20 24 9 0 14 12 14 35 l0 35 -115 0
c-70 0 -115 -4 -115 -10 0 -20 39 -49 74 -56 41 -7 44 -16 16 -44 -28 -28
-105 -30 -146 -4 -56 37 -59 148 -5 196 25 22 41 28 77 28 38 0 51 -5 75 -31
23 -25 35 -30 65 -27 47 4 51 15 21 59 -50 75 -174 103 -258 59z"/>
<path d="M2230 370 l0 -130 39 0 c26 0 41 5 45 16 9 23 7 113 -4 159 -8 37
-48 85 -71 85 -5 0 -9 -55 -9 -130z"/>
<path d="M2370 370 l0 -130 39 0 c26 0 41 5 45 16 9 23 7 113 -4 159 -8 37
-48 85 -71 85 -5 0 -9 -55 -9 -130z"/>
<path d="M1880 170 l0 -30 165 0 165 0 0 30 0 30 -165 0 -165 0 0 -30z"/>
</g>
</svg>
